<svg viewBox="0 0 1000 1000" xmlns="http://www.w3.org/2000/svg" role="img" aria-hidden="true">
<style>path{fill:#55a7a7;fill-opacity:.32;stroke:#367f82;stroke-width:1.4;stroke-linejoin:round}</style>
<path class="rmap-unit" data-code="EG-ALX" d="M407.95,177.91 L444.25,152.97 L446.48,156.72 L441.86,164.68 L428.67,173.13 L431.95,178.24 L428.67,185.05 L439.87,201.86 L433.39,210.13 L414.61,220.04 L410.02,229.67 L407.95,177.91 Z" />
<path class="rmap-unit" data-code="EG-ASN" d="M553.96,871.82 L549.4,871.82 L553.64,860.06 L551.36,854.88 L545.54,854.96 L540.08,863.59 L533.2,856.31 L537.24,850.74 L553.74,846.54 L561.86,838.17 L563.63,832.77 L561.57,821.55 L563.83,817.21 L570.0,814.17 L580.08,815.84 L607.74,804.33 L626.42,811.98 L641.64,777.89 L651.51,766.64 L650.42,762.19 L631.43,763.25 L625.68,759.93 L629.73,744.36 L633.48,739.52 L651.59,733.35 L642.56,725.53 L643.3,717.57 L656.84,714.6 L661.09,707.78 L660.45,679.78 L664.47,667.54 L655.09,637.98 L643.19,629.31 L646.26,626.73 L647.11,619.75 L662.72,630.59 L668.27,638.12 L671.28,660.22 L679.96,677.18 L670.0,694.17 L667.69,705.5 L670.57,720.42 L675.11,730.11 L682.03,737.05 L680.62,753.58 L686.22,769.11 L674.14,790.1 L691.63,803.4 L695.22,817.09 L679.19,806.5 L666.75,806.39 L657.35,800.06 L652.89,806.78 L651.48,817.4 L634.22,833.03 L618.9,835.94 L603.4,826.76 L592.56,847.45 L559.72,864.44 L553.96,871.82 Z" />
<path class="rmap-unit" data-code="EG-AST" d="M490.57,437.75 L511.35,438.82 L513.23,452.96 L538.07,464.75 L542.1,471.9 L553.52,481.34 L563.53,499.4 L558.43,499.09 L551.44,491.17 L538.97,499.08 L528.35,480.42 L499.78,460.58 L491.32,445.25 L490.57,437.75 Z" />
<path class="rmap-unit" data-code="EG-BA" d="M633.24,871.82 L553.96,871.82 L559.72,864.44 L592.56,847.45 L603.4,826.76 L618.9,835.94 L634.22,833.03 L651.48,817.4 L652.89,806.78 L657.35,800.06 L666.75,806.39 L679.19,806.5 L692.18,816.86 L695.53,816.23 L691.63,803.4 L674.14,790.1 L686.22,769.11 L680.62,753.58 L682.03,737.05 L675.11,730.11 L670.57,720.42 L667.69,705.5 L670.0,694.17 L679.96,677.18 L671.28,660.22 L668.27,638.12 L662.72,630.59 L644.66,617.67 L640.82,607.3 L642.55,598.02 L657.92,583.59 L663.3,574.43 L663.62,560.11 L657.59,549.32 L645.55,543.61 L634.41,544.17 L616.53,551.36 L604.81,536.84 L590.89,531.13 L579.85,510.43 L563.53,499.4 L553.52,481.34 L542.1,471.9 L538.07,464.75 L512.68,452.09 L512.39,426.08 L501.85,388.28 L508.74,374.87 L513.7,347.11 L531.61,324.88 L535.53,309.6 L552.99,326.91 L586.05,336.35 L604.02,335.07 L631.32,324.43 L643.37,323.31 L641.01,334.7 L650.53,347.62 L654.97,349.68 L659.75,365.01 L670.06,371.9 L689.03,398.58 L696.29,405.68 L703.84,408.31 L712.51,417.55 L715.41,425.65 L707.48,421.44 L706.29,423.19 L710.08,428.68 L712.78,428.06 L711.16,432.05 L715.41,436.78 L712.78,434.11 L708.05,436.78 L713.31,442.56 L712.78,445.24 L718.57,448.39 L723.08,460.24 L734.38,467.89 L734.25,477.26 L746.52,494.52 L746.52,499.04 L742.84,499.57 L742.31,513.23 L747.9,516.46 L772.89,563.41 L788.89,584.71 L823.01,647.83 L823.97,654.72 L828.69,658.68 L836.14,673.27 L834.93,679.0 L853.96,695.73 L861.81,709.12 L862.59,706.68 L869.09,711.67 L870.39,716.05 L880.66,718.79 L884.81,725.03 L881.56,722.71 L869.88,722.94 L863.36,719.26 L861.05,723.83 L860.35,733.06 L863.07,736.26 L861.48,756.22 L877.32,799.71 L882.59,804.46 L879.49,799.73 L881.97,800.46 L884.22,807.32 L892.0,814.83 L918.18,822.55 L924.91,833.62 L933.74,838.67 L934.64,844.03 L955.72,858.44 L961.0,858.81 L970.0,869.17 L968.8,871.79 L633.24,871.82 Z M743.36,502.72 L747.1,509.02 L743.36,502.72 Z M747.33,447.34 L750.77,452.02 L740.17,446.24 L747.33,447.34 Z" />
<path class="rmap-unit" data-code="EG-BH" d="M446.48,156.72 L452.18,157.74 L449.68,160.37 L451.61,161.95 L459.59,158.22 L461.12,160.32 L461.04,157.22 L452.71,157.22 L462.98,151.65 L465.9,140.3 L474.17,151.85 L478.79,153.38 L476.95,160.31 L479.34,163.51 L482.79,163.27 L494.57,173.84 L499.12,184.58 L497.18,187.42 L500.0,188.78 L497.55,191.94 L501.75,191.94 L496.88,195.92 L499.9,196.83 L498.51,200.47 L503.37,210.43 L502.32,213.11 L504.42,213.59 L503.9,224.72 L506.6,226.91 L467.3,257.87 L464.19,263.46 L413.63,236.22 L410.02,229.67 L414.61,220.04 L433.39,210.13 L439.87,201.86 L428.67,185.05 L431.95,178.24 L428.7,172.82 L439.78,167.19 L446.48,156.72 Z" />
<path class="rmap-unit" data-code="EG-BNS" d="M463.25,334.43 L505.43,323.31 L523.72,301.8 L531.45,302.59 L535.58,306.48 L532.58,323.2 L515.33,344.45 L511.58,354.49 L498.07,349.46 L419.59,351.13 L424.64,325.79 L458.12,331.2 L463.25,334.43 Z" />
<path class="rmap-unit" data-code="EG-C" d="M584.18,237.73 L587.39,272.31 L538.32,274.1 L538.11,264.47 L532.9,255.01 L534.17,246.78 L540.99,242.95 L561.59,240.96 L580.78,229.52 L584.18,237.73 Z" />
<path class="rmap-unit" data-code="EG-DK" d="M577.07,157.26 L584.06,161.42 L585.64,159.27 L584.59,161.95 L587.19,164.24 L591.82,160.91 L595.71,161.95 L594.1,168.78 L596.89,168.72 L576.19,173.57 L560.2,193.62 L544.15,196.21 L545.18,208.14 L543.04,211.45 L535.41,210.32 L536.69,204.73 L532.34,191.18 L535.49,189.9 L535.53,181.43 L539.41,177.33 L532.69,176.25 L534.16,169.8 L538.93,168.56 L535.25,141.8 L542.81,137.86 L559.88,144.48 L554.39,150.54 L564.68,156.27 L566.0,153.54 L569.03,154.73 L561.82,163.95 L562.84,165.95 L577.07,157.26 Z M600.07,150.49 L608.22,155.92 L598.25,151.39 L600.07,150.49 Z" />
<path class="rmap-unit" data-code="EG-DT" d="M599.24,151.0 L592.47,148.23 L586.54,138.3 L582.48,138.2 L580.91,140.3 L583.54,145.6 L580.67,142.88 L579.33,144.51 L583.54,146.61 L579.8,147.18 L581.96,151.39 L577.25,150.96 L575.89,159.7 L562.84,165.95 L561.82,163.95 L567.94,158.7 L568.7,153.56 L564.68,156.27 L554.31,150.11 L559.88,144.48 L586.16,137.46 L599.24,151.0 Z" />
<path class="rmap-unit" data-code="EG-FYM" d="M523.72,301.8 L505.43,323.31 L466.89,334.16 L424.64,325.79 L466.22,291.3 L496.32,277.61 L512.48,275.86 L516.06,278.3 L523.72,301.8 Z" />
<path class="rmap-unit" data-code="EG-GH" d="M515.61,203.3 L510.3,200.44 L500.18,203.25 L499.9,196.83 L496.88,195.92 L501.75,191.94 L497.55,191.94 L500.0,188.78 L497.18,187.42 L499.12,184.58 L496.76,180.43 L498.95,178.29 L504.26,179.98 L517.71,177.17 L521.33,169.31 L532.96,168.65 L535.0,170.18 L532.69,176.25 L539.39,176.35 L535.53,181.43 L535.49,189.9 L532.34,191.18 L536.69,204.73 L535.21,212.12 L520.54,202.65 L515.61,203.3 Z" />
<path class="rmap-unit" data-code="EG-GZ" d="M419.59,351.13 L407.11,379.99 L397.32,391.41 L344.58,419.34 L335.22,435.15 L232.95,435.15 L266.23,372.36 L271.99,365.97 L338.76,349.91 L354.29,339.61 L404.3,295.43 L464.19,263.46 L467.3,257.87 L503.03,229.92 L508.92,229.45 L515.2,239.04 L521.1,238.56 L533.48,244.75 L532.9,255.01 L538.11,264.47 L538.32,274.1 L587.39,272.31 L582.78,335.05 L549.21,324.66 L535.53,309.6 L533.95,304.0 L523.72,301.8 L518.22,280.21 L512.48,275.86 L496.32,277.61 L460.57,295.26 L424.64,325.79 L419.59,351.13 Z" />
<path class="rmap-unit" data-code="EG-IS" d="M603.83,172.46 L616.82,169.49 L639.21,180.66 L643.05,216.81 L654.34,236.06 L637.3,235.35 L628.2,239.93 L611.92,236.92 L584.18,237.73 L574.67,212.72 L590.86,212.54 L600.45,203.48 L602.86,198.49 L601.93,191.46 L608.39,179.11 L603.83,172.46 Z" />
<path class="rmap-unit" data-code="EG-JS" d="M814.99,294.92 L803.52,308.64 L802.94,317.29 L798.75,324.4 L799.61,333.47 L796.11,336.54 L794.9,352.92 L778.39,384.95 L778.61,391.63 L781.87,396.12 L780.3,411.46 L763.3,425.63 L766.63,427.32 L766.05,430.47 L761.43,426.0 L751.01,423.86 L728.6,407.73 L713.31,386.71 L703.24,381.37 L689.56,367.69 L690.08,365.16 L689.56,367.12 L687.44,365.75 L684.84,357.61 L687.41,350.78 L683.28,345.15 L683.53,333.4 L661.03,313.89 L655.77,300.73 L649.42,295.35 L647.9,297.5 L648.6,291.07 L645.27,286.42 L646.21,276.95 L643.03,271.78 L658.66,262.26 L679.86,261.38 L728.98,268.93 L782.86,290.53 L814.99,294.92 Z M791.86,413.03 L794.58,415.71 L786.7,414.94 L784.5,409.88 L786.64,408.31 L788.71,409.88 L786.22,412.08 L791.86,413.03 Z M803.16,412.88 L801.07,416.63 L797.76,414.95 L803.16,412.88 Z" />
<path class="rmap-unit" data-code="EG-KB" d="M561.59,240.96 L540.99,242.95 L534.17,246.78 L524.77,239.03 L523.87,230.02 L520.19,226.78 L524.09,226.17 L523.67,223.57 L525.52,224.61 L533.43,215.74 L533.43,212.54 L536.06,213.11 L535.41,210.32 L543.04,211.45 L538.52,214.95 L536.86,221.98 L545.56,234.03 L561.59,240.96 Z" />
<path class="rmap-unit" data-code="EG-KFS" d="M469.55,144.49 L466.77,139.47 L480.14,142.93 L513.87,133.47 L480.67,148.23 L487.14,148.72 L490.86,146.19 L495.43,148.76 L500.37,144.27 L507.59,146.38 L511.24,143.46 L514.39,145.03 L518.12,138.72 L524.43,140.83 L525.91,138.84 L514.19,133.66 L523.38,131.84 L542.81,137.86 L534.81,142.93 L538.93,168.56 L521.33,169.31 L518.96,176.66 L504.26,179.98 L497.68,179.9 L492.73,171.54 L482.79,163.27 L479.34,163.51 L476.95,160.31 L478.79,153.38 L474.17,151.85 L469.55,144.49 Z" />
<path class="rmap-unit" data-code="EG-KN" d="M603.41,545.31 L613.64,553.44 L634.41,544.17 L645.55,543.61 L654.93,547.1 L661.71,554.76 L664.44,565.75 L663.3,574.43 L640.82,602.11 L642.14,613.07 L647.11,619.75 L646.26,626.73 L643.19,629.31 L632.84,620.49 L626.96,594.56 L643.54,579.5 L650.44,563.45 L650.0,558.46 L646.44,555.39 L640.48,555.53 L620.65,563.53 L605.4,565.18 L589.19,552.78 L603.41,545.31 Z" />
<path class="rmap-unit" data-code="EG-LX" d="M642.87,584.33 L643.0,587.94 L640.96,587.62 L642.87,584.33 Z" />
<path class="rmap-unit" data-code="EG-MN" d="M335.22,435.15 L344.58,419.34 L397.32,391.41 L407.11,379.99 L419.59,351.13 L498.07,349.46 L511.58,354.49 L508.74,374.87 L501.67,389.66 L512.39,426.08 L511.35,438.82 L492.66,438.55 L490.57,437.75 L491.84,435.17 L335.22,435.15 Z" />
<path class="rmap-unit" data-code="EG-MNF" d="M518.14,239.49 L514.25,238.24 L509.49,229.74 L502.53,228.83 L506.6,226.91 L503.9,224.72 L504.42,213.59 L500.35,206.53 L502.18,202.16 L510.3,200.44 L520.54,202.65 L536.06,213.11 L533.43,212.54 L533.43,215.74 L525.52,224.61 L523.67,223.57 L524.09,226.17 L520.19,226.78 L523.87,230.02 L527.07,242.11 L521.1,238.56 L518.14,239.49 Z" />
<path class="rmap-unit" data-code="EG-MT" d="M52.55,402.14 L52.02,314.21 L43.51,293.89 L44.03,283.46 L38.46,271.29 L39.49,264.02 L30.02,241.55 L46.88,217.23 L53.6,195.18 L44.96,175.63 L42.36,151.8 L55.82,140.58 L58.64,134.04 L65.61,128.1 L68.69,137.72 L77.25,139.64 L128.42,131.17 L197.62,145.01 L205.3,144.02 L225.37,150.33 L232.64,149.31 L242.31,161.45 L258.79,164.76 L273.61,160.14 L279.31,171.01 L309.44,174.03 L317.6,172.21 L347.44,181.97 L349.27,185.5 L364.08,191.95 L378.77,191.11 L407.95,177.91 L410.02,229.67 L413.63,236.22 L464.19,263.46 L404.3,295.43 L354.29,339.61 L338.76,349.91 L271.99,365.97 L266.23,372.36 L232.95,435.15 L52.55,435.25 L52.55,402.14 Z" />
<path class="rmap-unit" data-code="EG-PTS" d="M612.61,156.41 L618.37,157.74 L639.02,173.9 L639.21,180.66 L615.18,169.88 L615.57,162.21 L612.61,156.41 Z" />
<path class="rmap-unit" data-code="EG-SHG" d="M613.64,553.44 L603.41,545.31 L589.19,552.78 L538.97,499.08 L551.44,491.17 L558.43,499.09 L563.53,499.4 L576.46,507.47 L584.84,518.19 L589.69,529.74 L604.81,536.84 L616.53,551.36 L613.64,553.44 Z" />
<path class="rmap-unit" data-code="EG-SHR" d="M603.78,171.91 L607.01,169.02 L613.81,169.49 L613.06,165.58 L615.04,165.63 L615.18,169.88 L603.78,171.91 Z M596.89,168.72 L596.24,171.98 L601.05,174.53 L603.03,173.56 L600.4,171.45 L603.83,172.46 L608.29,180.07 L601.93,191.46 L602.07,200.5 L595.33,209.29 L590.86,212.54 L574.67,212.72 L580.78,229.52 L561.59,240.96 L545.56,234.03 L536.86,221.98 L538.52,214.95 L544.83,209.69 L544.15,196.21 L560.2,193.62 L576.19,173.57 L596.89,168.72 Z" />
<path class="rmap-unit" data-code="EG-SIN" d="M765.94,162.36 L783.8,205.49 L788.1,218.5 L787.38,224.09 L792.97,229.1 L803.26,254.65 L815.08,294.87 L782.86,290.53 L728.98,268.93 L679.86,261.38 L658.66,262.26 L654.34,236.06 L642.77,215.78 L639.02,173.9 L651.51,172.39 L664.24,166.67 L644.17,174.61 L652.1,175.13 L665.29,171.45 L664.23,170.03 L670.6,174.3 L674.79,168.25 L672.17,170.88 L666.33,170.41 L678.26,163.52 L681.98,169.56 L679.0,170.41 L680.1,175.13 L690.04,170.88 L693.24,172.51 L694.29,170.88 L691.18,170.41 L699.59,169.83 L701.12,166.67 L719.72,169.61 L750.44,160.99 L762.24,154.45 L765.94,162.36 Z M698.78,164.05 L706.48,167.73 L690.61,161.95 L698.78,164.05 Z M675.89,161.15 L690.04,161.42 L677.73,161.18 L664.81,167.25 L675.89,161.15 Z" />
<path class="rmap-unit" data-code="EG-SUZ" d="M643.03,271.78 L639.39,269.15 L641.0,265.3 L636.86,261.09 L636.86,254.74 L636.86,260.04 L632.38,258.58 L629.57,260.84 L629.26,264.7 L632.08,265.87 L623.1,276.07 L618.85,286.99 L637.6,304.18 L643.37,323.31 L631.32,324.43 L604.02,335.07 L582.78,335.05 L587.96,265.43 L584.18,237.73 L611.92,236.92 L628.2,239.93 L637.3,235.35 L654.34,236.06 L658.66,262.26 L643.03,271.78 Z" />
<path class="rmap-unit" data-code="EG-WAD" d="M52.55,482.77 L52.55,435.25 L491.84,435.17 L490.5,442.83 L499.78,460.58 L528.35,480.42 L538.97,499.08 L601.39,563.13 L613.84,565.29 L644.02,555.16 L650.0,558.46 L650.44,563.45 L643.54,579.5 L628.63,591.46 L626.88,596.15 L632.84,620.49 L655.09,637.98 L663.56,663.2 L660.45,679.78 L661.09,707.78 L656.84,714.6 L643.3,717.57 L642.56,725.53 L651.59,733.35 L633.48,739.52 L629.73,744.36 L625.68,759.93 L631.43,763.25 L650.42,762.19 L651.04,767.67 L641.64,777.89 L626.42,811.98 L607.74,804.33 L580.08,815.84 L570.0,814.17 L564.9,816.1 L561.57,821.55 L563.63,832.77 L561.86,838.17 L553.74,846.54 L539.16,849.87 L534.02,854.1 L533.76,857.96 L540.08,863.59 L535.0,871.9 L52.55,871.82 L52.55,482.77 Z" />
</svg>
